HIERARCHY
ROOT Hips
{
 OFFSET 0.000000 0.000000 0.000000
 CHANNELS 6 Xposition Yposition Zposition Yrotation Xrotation Zrotation
 JOINT Chest
 {
  OFFSET 0.000000 9.585900 0.002600
  CHANNELS 3 Yrotation Xrotation Zrotation
  JOINT Chest2
  {
   OFFSET 0.000000 9.601200 -0.005300
   CHANNELS 3 Yrotation Xrotation Zrotation
   JOINT Chest3
   {
    OFFSET 0.000000 9.561800 0.000000
    CHANNELS 3 Yrotation Xrotation Zrotation
    JOINT Chest4
    {
     OFFSET 0.000000 9.552100 0.000000
     CHANNELS 3 Yrotation Xrotation Zrotation
     JOINT Neck
     {
      OFFSET 0.000000 14.453000 0.000000
      CHANNELS 3 Yrotation Xrotation Zrotation
      JOINT Head
      {
       OFFSET 0.000000 8.936500 -0.011300
       CHANNELS 3 Yrotation Xrotation Zrotation
       End Site
       {
        OFFSET 0.000000 17.073600 -0.006000
       }
      }
     }
     JOINT RightCollar
     {
      OFFSET -2.921100 9.558500 0.000000
      CHANNELS 3 Yrotation Xrotation Zrotation
      JOINT RightShoulder
      {
       OFFSET -13.519700 0.000000 0.000000
       CHANNELS 3 Yrotation Xrotation Zrotation
       JOINT RightElbow
       {
        OFFSET 0.000000 -29.696600 0.000000
        CHANNELS 3 Yrotation Xrotation Zrotation
        JOINT RightWrist
        {
         OFFSET 0.000000 -24.004700 0.000000
         CHANNELS 3 Yrotation Xrotation Zrotation
         End Site
         {
          OFFSET 0.000000 -17.728500 0.000000
         }
        }
       }
      }
     }
     JOINT LeftCollar
     {
      OFFSET 2.921100 9.558500 0.000000
      CHANNELS 3 Yrotation Xrotation Zrotation
      JOINT LeftShoulder
      {
       OFFSET 13.519700 0.000000 0.000000
       CHANNELS 3 Yrotation Xrotation Zrotation
       JOINT LeftElbow
       {
        OFFSET 0.000000 -29.696600 0.000000
        CHANNELS 3 Yrotation Xrotation Zrotation
        JOINT LeftWrist
        {
         OFFSET 0.000000 -24.004700 0.000000
         CHANNELS 3 Yrotation Xrotation Zrotation
         End Site
         {
          OFFSET 0.000000 -17.728500 0.000000
         }
        }
       }
      }
     }
    }
   }
  }
 }
 JOINT RightHip
 {
  OFFSET -7.771700 -0.012900 -0.001300
  CHANNELS 3 Yrotation Xrotation Zrotation
  JOINT RightKnee
  {
   OFFSET 0.000000 -40.869800 0.001200
   CHANNELS 3 Yrotation Xrotation Zrotation
   JOINT RightAnkle
   {
    OFFSET 0.000000 -39.717900 0.002100
    CHANNELS 3 Yrotation Xrotation Zrotation
    JOINT RightToe
    {
     OFFSET 0.000000 -4.965400 11.033500
     CHANNELS 3 Yrotation Xrotation Zrotation
     End Site
     {
      OFFSET 0.000000 -1.423100 5.872300
     }
    }
   }
  }
 }
 JOINT LeftHip
 {
  OFFSET 7.771700 -0.012900 -0.001300
  CHANNELS 3 Yrotation Xrotation Zrotation
  JOINT LeftKnee
  {
   OFFSET 0.000000 -40.869800 0.001200
   CHANNELS 3 Yrotation Xrotation Zrotation
   JOINT LeftAnkle
   {
    OFFSET 0.000000 -39.717900 0.002100
    CHANNELS 3 Yrotation Xrotation Zrotation
    JOINT LeftToe
    {
     OFFSET 0.000000 -4.965400 11.033500
     CHANNELS 3 Yrotation Xrotation Zrotation
     End Site
     {
      OFFSET 0.000000 -1.423100 5.872300
     }
    }
   }
  }
 }
}
MOTION
Frames: 12
Frame Time: 0.008333
0.000000 85.388000 0.000000 0.000000 -5.767877 0.000000 0.000000 11.653817 0.000000 0.000000 -5.885947 0.000000 0.000000 -0.000000 0.000000 0.000000 -0.000000 0.000000 0.000000 12.528835 0.000000 0.000000 0.711642 0.000000 0.000000 -0.000000 0.000000 0.000000 0.000000 -90.000000 0.000000 -2.309062 0.000000 0.000000 2.309062 0.000000 0.000000 -0.000000 0.000000 0.000000 -0.000000 90.000000 0.000000 -2.309062 0.000000 0.000000 2.309062 0.000000 0.000000 8.520406 0.000000 0.000000 1.905762 0.000000 -0.000000 -4.658285 0.000000 0.000000 -0.000000 0.000000 0.000000 8.520406 0.000000 0.000000 1.905762 0.000000 -0.000000 -4.658285 0.000000 0.000000 -0.000000 0.000000
-37.801976 55.263597 -0.573672 -176.584106 -17.816369 -0.963298 -1.443124 17.869084 1.214188 -0.172700 1.965934 0.167025 -0.265062 3.330784 0.332573 -1.181336 15.653228 1.321443 6.833324 19.607401 -6.906855 9.226075 -4.280764 -9.290766 3.355981 5.958272 0.226255 -12.699773 -19.911923 -4.312395 -78.715441 -15.292878 106.087509 -41.218158 -18.592076 0.652577 -6.407798 3.756158 -0.088692 22.147374 -16.883061 0.798217 66.393947 -7.385771 -100.792054 31.522847 -30.435126 0.402839 0.886215 -57.300330 9.356208 -91.576369 87.327437 -97.173061 -11.741334 -22.193207 15.209763 0.119135 -0.061704 0.077962 9.969389 -53.407875 -7.027602 109.862563 77.548883 105.942542 -8.030371 -23.893799 2.800692 -0.050428 0.220529 -0.022240
-37.804950 55.263044 -0.574764 -176.582567 -17.800395 -0.943601 -1.447091 17.869784 1.209624 -0.157175 2.015006 0.203255 -0.270924 3.307974 0.310114 -1.177773 15.662084 1.336468 6.673149 19.626830 -6.925395 9.045624 -4.271843 -9.267477 3.414514 6.008294 0.263621 -12.680282 -19.848599 -4.247077 -78.647544 -15.225980 105.997639 -41.213643 -18.614126 0.597519 -6.399046 3.768637 -0.125878 22.131023 -16.912843 0.710532 66.364433 -7.376880 -100.791348 31.523744 -30.440169 0.421531 0.921754 -57.318841 9.322151 -91.769293 87.342512 -97.367856 -11.807601 -22.194330 15.213643 0.094158 -0.064463 0.076472 10.018518 -53.412341 -7.083682 109.830354 77.554257 105.916434 -8.022304 -23.898919 2.804490 -0.052722 0.228056 -0.022026
-37.808032 55.262572 -0.575304 -176.569248 -17.780662 -0.928576 -1.426116 17.923518 1.241251 -0.191101 1.950250 0.170854 -0.265218 3.320802 0.315889 -1.175174 15.667312 1.343309 6.531541 19.667982 -6.921602 8.857933 -4.274358 -9.231958 3.433259 6.020300 0.276784 -12.619109 -19.717492 -4.144255 -78.554811 -15.138358 105.896864 -41.213445 -18.627522 0.545983 -6.385687 3.816817 -0.152798 22.102952 -16.948769 0.623438 66.337518 -7.384095 -100.791518 31.519940 -30.442657 0.437274 0.957856 -57.343469 9.295841 -91.916389 87.332494 -97.500106 -11.952185 -22.180211 15.225462 0.094304 -0.058904 0.092860 10.038507 -53.426941 -7.122940 109.820697 77.557829 105.900082 -8.018347 -23.892932 2.809570 -0.059043 0.228815 -0.021984
-37.811327 55.262556 -0.575944 -176.561880 -17.763900 -0.913651 -1.411395 17.945583 1.244793 -0.195795 1.951194 0.176027 -0.275569 3.303398 0.308882 -1.137144 15.723373 1.365905 6.360090 19.656671 -6.928533 8.672257 -4.285908 -9.186526 3.451046 6.036426 0.322305 -12.587602 -19.649993 -4.055412 -78.434148 -15.034115 105.788568 -41.220948 -18.633172 0.497027 -6.417310 3.822382 -0.181847 22.065493 -16.988113 0.537945 66.317384 -7.408508 -100.791787 31.512289 -30.441701 0.449867 1.017453 -57.366474 9.261723 -92.042591 87.325171 -97.611064 -12.076923 -22.165514 15.234559 0.114781 -0.053083 0.119206 10.070450 -53.434370 -7.165936 109.783559 77.560843 105.865398 -8.028264 -23.892473 2.816568 -0.054282 0.232791 -0.021863
-37.813641 55.262344 -0.574226 -176.546241 -17.735884 -0.910396 -1.398459 17.957012 1.254106 -0.172854 1.989357 0.188613 -0.272130 3.315618 0.312715 -1.138176 15.716387 1.371401 6.198053 19.637702 -6.923261 8.496577 -4.303903 -9.132495 3.449429 6.044153 0.379548 -12.543842 -19.581377 -3.959959 -78.292279 -14.914075 105.675651 -41.229103 -18.626755 0.445421 -6.468201 3.831894 -0.200911 22.018994 -17.026028 0.452385 66.325114 -7.462919 -100.797471 31.506077 -30.423969 0.474257 1.021199 -57.396489 9.244047 -92.111408 87.325236 -97.679105 -12.059218 -22.171877 15.202147 0.069552 -0.060165 0.112830 10.085667 -53.456536 -7.194565 109.753825 77.564084 105.836334 -8.039011 -23.893513 2.821041 -0.049782 0.239792 -0.017977
-37.814306 55.263154 -0.573854 -176.543781 -17.720873 -0.918109 -1.382575 17.961547 1.269148 -0.156408 2.013965 0.192191 -0.261919 3.336689 0.315316 -1.155622 15.685032 1.374410 6.087522 19.665741 -6.900345 8.337192 -4.327436 -9.071455 3.457930 6.081939 0.436909 -12.479541 -19.494212 -3.852988 -78.134553 -14.776560 105.561122 -41.231844 -18.602000 0.391284 -6.495610 3.871890 -0.214516 21.955571 -17.031731 0.372745 66.382918 -7.557180 -100.820580 31.502564 -30.374847 0.532702 1.031672 -57.412854 9.239130 -92.142151 87.337522 -97.718050 -11.953776 -22.185973 15.154301 0.078213 -0.067932 0.118819 10.086007 -53.469639 -7.191797 109.723881 77.570783 105.809562 -8.044020 -23.887092 2.814859 -0.043833 0.240307 -0.008839
-37.815361 55.264251 -0.572585 -176.531168 -17.705196 -0.930862 -1.373816 17.964753 1.285709 -0.164434 2.005851 0.191924 -0.238947 3.377236 0.317530 -1.160835 15.668254 1.380046 5.993899 19.688912 -6.869436 8.200561 -4.355046 -9.006772 3.459270 6.119441 0.497728 -12.407271 -19.409119 -3.745175 -77.963706 -14.623651 105.453049 -41.232060 -18.561549 0.340158 -6.522428 3.862569 -0.215351 21.872048 -16.975116 0.306288 66.401331 -7.628225 -100.827440 31.466671 -30.339624 0.561785 1.045775 -57.430071 9.224059 -92.153302 87.338095 -97.727329 -11.834280 -22.205369 15.098686 0.091807 -0.070914 0.132665 10.068213 -53.484710 -7.181331 109.703174 77.573007 105.784359 -8.049972 -23.886384 2.817766 -0.042395 0.244019 -0.005011
-37.817351 55.265737 -0.570904 -176.520554 -17.691547 -0.941356 -1.352410 17.988369 1.302817 -0.162989 2.011882 0.193258 -0.241662 3.381666 0.320200 -1.114317 15.740872 1.393748 5.876780 19.618707 -6.837122 8.092843 -4.382519 -8.942129 3.414826 6.069557 0.561629 -12.326755 -19.324049 -3.643893 -77.785547 -14.464188 105.357632 -41.231631 -18.514944 0.291791 -6.617487 3.925461 -0.242418 21.812063 -17.067915 0.222713 66.413946 -7.707039 -100.827434 31.439182 -30.298763 0.585464 1.043092 -57.444112 9.228125 -92.125717 87.341744 -97.691183 -11.807011 -22.221179 15.047249 0.087923 -0.064451 0.147026 10.058343 -53.495341 -7.177032 109.680840 77.575601 105.763568 -8.061579 -23.890073 2.819473 -0.034281 0.251193 -0.002942
-37.820862 55.267552 -0.569020 -176.523533 -17.680425 -0.941804 -1.322642 18.010772 1.313345 -0.150964 2.053308 0.198668 -0.267286 3.328997 0.317563 -1.088062 15.794529 1.404494 5.811093 19.588860 -6.799739 8.018395 -4.406619 -8.882560 3.397517 6.065790 0.625997 -12.237876 -19.240398 -3.551154 -77.608240 -14.306947 105.273445 -41.227165 -18.461680 0.239685 -6.670739 3.980176 -0.259944 21.731477 -17.093628 0.147764 66.329519 -7.763045 -100.765958 31.427409 -30.311053 0.514215 1.059629 -57.457885 9.228222 -92.144996 87.361351 -97.702214 -11.844765 -22.226199 15.027672 0.050564 -0.063728 0.134266 10.071537 -53.501819 -7.183187 109.659758 77.583826 105.740926 -8.066500 -23.888740 2.824612 -0.032472 0.253411 -0.004221
-37.824566 55.269823 -0.567657 -176.521541 -17.674186 -0.945129 -1.309033 18.065917 1.329437 -0.160442 2.026221 0.196359 -0.263138 3.316808 0.313915 -1.085850 15.828619 1.417204 5.786844 19.556202 -6.792390 7.974323 -4.407416 -8.800435 3.400368 6.083289 0.682075 -12.142144 -19.157017 -3.461089 -77.438176 -14.163487 105.198594 -41.218875 -18.400925 0.186756 -6.698964 4.024018 -0.278577 21.642059 -17.078024 0.080195 66.279895 -7.817600 -100.733955 31.408304 -30.312647 0.497559 1.065521 -57.465613 9.232819 -92.186526 87.375712 -97.734492 -11.884545 -22.234737 15.005371 0.041857 -0.062849 0.121989 10.078037 -53.506767 -7.187703 109.650893 77.591030 105.730343 -8.066578 -23.880006 2.830676 -0.031280 0.247865 -0.002377
-37.828403 55.272085 -0.565687 -176.519568 -17.664464 -0.948986 -1.310162 18.070757 1.336051 -0.164453 2.044139 0.201840 -0.255815 3.325988 0.313017 -1.095697 15.840138 1.429612 5.780943 19.560187 -6.746297 7.964959 -4.427831 -8.778000 3.414894 6.102807 0.729506 -12.039384 -19.071678 -3.373019 -77.277395 -14.042957 105.132532 -41.207589 -18.339036 0.143034 -6.718933 4.064239 -0.302074 21.552136 -17.049559 0.012221 66.245940 -7.870212 -100.713810 31.390878 -30.309120 0.513189 1.067908 -57.469700 9.238769 -92.069567 87.388480 -97.611090 -11.884901 -22.280706 14.888253 0.071129 -0.031726 0.193915 10.083675 -53.514693 -7.189398 109.628480 77.599349 105.707062 -8.075517 -23.869181 2.836797 -0.023204 0.243143 0.001090
